<svg width="60" height="58" viewBox="0 0 60 58" fill="none" xmlns="http://www.w3.org/2000/svg">
<path d="M59.5 29C59.5 44.7243 46.3085 57.5 30 57.5C13.6915 57.5 0.5 44.7243 0.5 29C0.5 13.2757 13.6915 0.500015 30 0.500015C46.3085 0.500015 59.5 13.2757 59.5 29Z" fill="#23232D" fill-opacity="0.4" style="mix-blend-mode:multiply"/>
<path d="M59.5 29C59.5 44.7243 46.3085 57.5 30 57.5C13.6915 57.5 0.5 44.7243 0.5 29C0.5 13.2757 13.6915 0.500015 30 0.500015C46.3085 0.500015 59.5 13.2757 59.5 29Z" stroke="white"/>
<path d="M45.5173 29L22.7587 44V29.273V14L45.5173 29Z" fill="white"/>
<path d="M22.7587 45C22.5932 45 22.4267 44.962 22.2756 44.884C21.9363 44.711 21.7242 44.371 21.7242 44V14C21.7242 13.629 21.9363 13.289 22.2756 13.116C22.6149 12.942 23.0246 12.966 23.3422 13.174L46.1008 28.174C46.3822 28.36 46.5518 28.669 46.5518 29C46.5518 29.331 46.3822 29.64 46.0998 29.826L23.3411 44.826C23.1663 44.941 22.9625 45 22.7587 45ZM23.7932 15.893V42.108L43.6811 29L23.7932 15.893Z" fill="white"/>
</svg>
