<svg width="22" height="20" viewBox="0 0 22 20" fill="none" xmlns="http://www.w3.org/2000/svg">
<path d="M11.3659 11.2241C14.4694 11.2241 16.9866 8.70689 16.9866 5.60346C16.9866 2.50004 14.4693 0 11.3659 0C8.26249 0 5.74524 2.51725 5.74524 5.60346C5.74524 8.68967 8.26246 11.2241 11.3659 11.2241ZM11.3659 1.46552C13.6418 1.46552 15.5039 3.32758 15.5039 5.60346C15.5039 7.87934 13.6418 9.74136 11.3659 9.74136C9.09007 9.74136 7.22798 7.87931 7.22798 5.60342C7.22798 3.32754 9.09004 1.46552 11.3659 1.46552Z" fill="#828A8E"/>
<path d="M1.64176 20H21.159C21.5728 20 21.9004 19.6724 21.9004 19.2586C21.9004 15.3793 18.7452 12.2069 14.8486 12.2069H7.95212C4.07281 12.2069 0.900391 15.3621 0.900391 19.2586C0.900391 19.6724 1.22797 20 1.64176 20ZM7.95212 13.6897H14.8486C17.6762 13.6897 20.0038 15.7931 20.3659 18.5172H2.43487C2.79692 15.8104 5.12454 13.6897 7.95212 13.6897Z" fill="#828A8E"/>
</svg>
