<svg width="12" height="10" viewBox="0 0 12 10" fill="none" xmlns="http://www.w3.org/2000/svg">
<path d="M5.2351 0.225959C5.30863 0.087672 5.46008 0 5.62561 0C5.79113 0 5.94282 0.087672 6.01612 0.225959L7.41677 2.86855C7.48011 2.98808 7.60292 3.07101 7.7449 3.09021L10.8772 3.51389C11.0416 3.53603 11.1775 3.64313 11.2287 3.78978C11.2799 3.93643 11.2372 4.09776 11.1185 4.20532L8.85212 6.26245C8.74946 6.35554 8.70261 6.48976 8.72664 6.62127L9.26156 9.52597C9.28923 9.67827 9.22249 9.83192 9.08803 9.92275C8.95381 10.0131 8.7764 10.0251 8.62932 9.95371L5.82754 8.58214C5.70084 8.52 5.54915 8.52 5.42222 8.58214L2.62044 9.95348C2.47385 10.0251 2.29594 10.0134 2.16173 9.92275C2.02751 9.83214 1.96053 9.67827 1.98844 9.52597L2.52336 6.62127C2.54763 6.48976 2.50055 6.35554 2.39788 6.26245L0.131507 4.20532C0.012825 4.09754 -0.029891 3.93643 0.0213197 3.78978C0.0725303 3.64313 0.208687 3.53603 0.372998 3.51389L3.50583 3.09021C3.64757 3.07101 3.77037 2.98808 3.83372 2.86832L5.2351 0.225959Z" fill="#828A8E"/>
</svg>
